<mxfile host="app.diagrams.net" modified="2022-06-30T08:01:53.393Z" agent="5.0 (Windows NT 6.1; Win64; x64) AppleWebKit/537.36 (KHTML, like Gecko) Chrome/103.0.0.0 Safari/537.36" etag="71AJJbbw1V1eiByfkaWT" version="20.0.4" type="github">
  <diagram name="Copy of Page-2" id="jN8k3b8OVwbsx_qTgyvn">
    <mxGraphModel dx="1488" dy="1160" grid="0" gridSize="10" guides="1" tooltips="1" connect="1" arrows="1" fold="1" page="0" pageScale="1" pageWidth="827" pageHeight="1169" math="0" shadow="0">
      <root>
        <mxCell id="4kYTyxmRW_54p8Q_4_XC-0" />
        <mxCell id="4kYTyxmRW_54p8Q_4_XC-1" parent="4kYTyxmRW_54p8Q_4_XC-0" />
        <mxCell id="4kYTyxmRW_54p8Q_4_XC-2" value="&lt;font style=&quot;font-size: 14px;&quot;&gt;&lt;b style=&quot;font-size: 14px;&quot;&gt;ATT Module&lt;/b&gt;&lt;/font&gt;" style="rounded=1;whiteSpace=wrap;html=1;fontFamily=consola;fontSource=https%3A%2F%2Ffonts.googleapis.com%2Fcss%3Ffamily%3Dconsola;align=left;verticalAlign=top;arcSize=3;fontSize=14;strokeWidth=0;" parent="4kYTyxmRW_54p8Q_4_XC-1" vertex="1">
          <mxGeometry x="-87" y="340" width="975" height="455" as="geometry" />
        </mxCell>
        <mxCell id="4kYTyxmRW_54p8Q_4_XC-10" value="" style="group;fontSize=14;fontFamily=consola;fontSource=https%3A%2F%2Ffonts.googleapis.com%2Fcss%3Ffamily%3Dconsola;fillColor=#FFFFFF;align=left;" parent="4kYTyxmRW_54p8Q_4_XC-1" vertex="1" connectable="0">
          <mxGeometry x="-66" y="438" width="270" height="272" as="geometry" />
        </mxCell>
        <mxCell id="4kYTyxmRW_54p8Q_4_XC-11" value="" style="shape=datastore;whiteSpace=wrap;html=1;rounded=0;glass=0;sketch=0;fontFamily=consola;strokeColor=default;fillColor=#FFCE9F;gradientColor=none;verticalAlign=bottom;horizontal=0;fontSize=14;fontSource=https%3A%2F%2Ffonts.googleapis.com%2Fcss%3Ffamily%3Dconsola;align=left;" parent="4kYTyxmRW_54p8Q_4_XC-10" vertex="1">
          <mxGeometry x="-10" y="122.92682926829268" width="270" height="169.02439024390245" as="geometry" />
        </mxCell>
        <mxCell id="4kYTyxmRW_54p8Q_4_XC-12" value="&lt;b style=&quot;font-size: 14px;&quot;&gt;Global Data&lt;/b&gt;" style="text;html=1;strokeColor=none;fillColor=none;align=left;verticalAlign=middle;whiteSpace=wrap;rounded=0;glass=0;sketch=0;fontFamily=consola;fontSize=14;fontSource=https%3A%2F%2Ffonts.googleapis.com%2Fcss%3Ffamily%3Dconsola;" parent="4kYTyxmRW_54p8Q_4_XC-10" vertex="1">
          <mxGeometry x="89" y="122.92682926829268" width="90" height="39.005628517823645" as="geometry" />
        </mxCell>
        <mxCell id="3c3tjuZdf967_n18R4A1-7" value="&lt;span style=&quot;font-size: 14px;&quot;&gt;K_MEM_SLAB_DEFINE(att_slab, ...)&lt;/span&gt;" style="rounded=1;arcSize=10;whiteSpace=wrap;html=1;align=left;glass=0;sketch=0;fontFamily=consola;fontSource=https%3A%2F%2Ffonts.googleapis.com%2Fcss%3Ffamily%3Dconsola;fontSize=12;strokeColor=default;fillColor=default;gradientColor=none;" parent="4kYTyxmRW_54p8Q_4_XC-10" vertex="1">
          <mxGeometry y="189" width="245" height="32" as="geometry" />
        </mxCell>
        <mxCell id="3c3tjuZdf967_n18R4A1-9" value="&lt;span style=&quot;font-size: 14px;&quot;&gt;K_MEM_SLAB_DEFINE(chan_slab,&amp;nbsp;...)&lt;/span&gt;" style="rounded=1;arcSize=10;whiteSpace=wrap;html=1;align=left;glass=0;sketch=0;fontFamily=consola;fontSource=https%3A%2F%2Ffonts.googleapis.com%2Fcss%3Ffamily%3Dconsola;fontSize=12;strokeColor=default;fillColor=default;gradientColor=none;" parent="4kYTyxmRW_54p8Q_4_XC-10" vertex="1">
          <mxGeometry y="234" width="245" height="32" as="geometry" />
        </mxCell>
        <mxCell id="4kYTyxmRW_54p8Q_4_XC-21" value="&lt;span style=&quot;font-size: 14px;&quot;&gt;&lt;b&gt;ATT PDU&lt;/b&gt;&lt;/span&gt;" style="rounded=0;whiteSpace=wrap;html=1;glass=0;sketch=0;fontFamily=consola;fontSource=https%3A%2F%2Ffonts.googleapis.com%2Fcss%3Ffamily%3Dconsola;fontSize=12;strokeColor=none;fillColor=#FFCE9F;gradientColor=none;horizontal=1;verticalAlign=top;align=left;" parent="4kYTyxmRW_54p8Q_4_XC-1" vertex="1">
          <mxGeometry x="485" y="352" width="336" height="329" as="geometry" />
        </mxCell>
        <mxCell id="4kYTyxmRW_54p8Q_4_XC-27" value="" style="shape=datastore;whiteSpace=wrap;html=1;rounded=0;glass=0;sketch=0;fontFamily=consola;verticalAlign=bottom;horizontal=0;fontSize=14;fontSource=https%3A%2F%2Ffonts.googleapis.com%2Fcss%3Ffamily%3Dconsola;fillColor=#FFCE9F;align=left;" parent="4kYTyxmRW_54p8Q_4_XC-1" vertex="1">
          <mxGeometry x="-70" y="400" width="250" height="140" as="geometry" />
        </mxCell>
        <mxCell id="4kYTyxmRW_54p8Q_4_XC-28" value="&lt;span style=&quot;font-size: 14px;&quot;&gt;struct bt_att_chan&lt;/span&gt;" style="rounded=1;arcSize=10;whiteSpace=wrap;html=1;align=left;glass=0;sketch=0;fontFamily=consola;fontSource=https%3A%2F%2Ffonts.googleapis.com%2Fcss%3Ffamily%3Dconsola;fontSize=12;strokeColor=default;fillColor=default;gradientColor=none;" parent="4kYTyxmRW_54p8Q_4_XC-1" vertex="1">
          <mxGeometry x="-60" y="489" width="144" height="30" as="geometry" />
        </mxCell>
        <mxCell id="4kYTyxmRW_54p8Q_4_XC-29" value="&lt;span style=&quot;font-size: 14px;&quot;&gt;struct bt_att&lt;/span&gt;" style="rounded=1;arcSize=10;whiteSpace=wrap;html=1;align=left;glass=0;sketch=0;fontFamily=consola;fontSource=https%3A%2F%2Ffonts.googleapis.com%2Fcss%3Ffamily%3Dconsola;fontSize=12;strokeColor=default;fillColor=default;gradientColor=none;" parent="4kYTyxmRW_54p8Q_4_XC-1" vertex="1">
          <mxGeometry x="-60" y="455" width="140" height="30" as="geometry" />
        </mxCell>
        <mxCell id="4kYTyxmRW_54p8Q_4_XC-34" value="&lt;b style=&quot;font-size: 14px;&quot;&gt;Struct define&lt;/b&gt;" style="text;html=1;strokeColor=none;fillColor=none;align=left;verticalAlign=middle;whiteSpace=wrap;rounded=0;glass=0;sketch=0;fontFamily=consola;fontSize=14;fontSource=https%3A%2F%2Ffonts.googleapis.com%2Fcss%3Ffamily%3Dconsola;" parent="4kYTyxmRW_54p8Q_4_XC-1" vertex="1">
          <mxGeometry y="400" width="110" height="25.38" as="geometry" />
        </mxCell>
        <mxCell id="4NJS1B0K4fI5r6qoZAFL-16" value="&lt;font style=&quot;font-size: 14px;&quot;&gt;&lt;b style=&quot;font-size: 14px;&quot;&gt;GATT Module&lt;/b&gt;&lt;/font&gt;" style="rounded=1;whiteSpace=wrap;html=1;fontFamily=consola;fontSource=https%3A%2F%2Ffonts.googleapis.com%2Fcss%3Ffamily%3Dconsola;align=left;verticalAlign=top;arcSize=3;fontSize=14;strokeWidth=0;" parent="4kYTyxmRW_54p8Q_4_XC-1" vertex="1">
          <mxGeometry x="-87" y="-132" width="975" height="455" as="geometry" />
        </mxCell>
        <mxCell id="vR5FNIahUqkv23ubM-fr-24" style="edgeStyle=orthogonalEdgeStyle;rounded=0;orthogonalLoop=1;jettySize=auto;html=1;fontSize=14;strokeWidth=1;exitX=0.75;exitY=1;exitDx=0;exitDy=0;entryX=0.055;entryY=-0.02;entryDx=0;entryDy=0;entryPerimeter=0;strokeColor=#7EA6E0;" parent="4kYTyxmRW_54p8Q_4_XC-1" source="4NJS1B0K4fI5r6qoZAFL-17" target="vR5FNIahUqkv23ubM-fr-0" edge="1">
          <mxGeometry relative="1" as="geometry">
            <mxPoint x="685" y="337" as="targetPoint" />
          </mxGeometry>
        </mxCell>
        <mxCell id="4NJS1B0K4fI5r6qoZAFL-17" value="&lt;b style=&quot;font-size: 14px;&quot;&gt;GATT Database Manager&lt;/b&gt;" style="whiteSpace=wrap;html=1;aspect=fixed;strokeColor=none;fillColor=#FFCE9F;gradientColor=none;horizontal=1;verticalAlign=top;align=left;fontSize=14;fontFamily=consola;fontSource=https%3A%2F%2Ffonts.googleapis.com%2Fcss%3Ffamily%3Dconsola;" parent="4kYTyxmRW_54p8Q_4_XC-1" vertex="1">
          <mxGeometry x="256" y="-46.62" width="250" height="250" as="geometry" />
        </mxCell>
        <mxCell id="4NJS1B0K4fI5r6qoZAFL-22" value="&lt;span style=&quot;font-size: 14px;&quot;&gt;bt_gatt_foreach_attr()&lt;/span&gt;" style="rounded=1;arcSize=10;whiteSpace=wrap;html=1;align=left;glass=0;sketch=0;fontFamily=consola;fontSource=https%3A%2F%2Ffonts.googleapis.com%2Fcss%3Ffamily%3Dconsola;fontSize=12;strokeColor=default;fillColor=default;gradientColor=none;" parent="4kYTyxmRW_54p8Q_4_XC-1" vertex="1">
          <mxGeometry x="266" y="83.38" width="160" height="30" as="geometry" />
        </mxCell>
        <mxCell id="4NJS1B0K4fI5r6qoZAFL-23" value="&lt;span style=&quot;font-size: 14px;&quot;&gt;gatt_insert()&lt;/span&gt;" style="rounded=1;arcSize=10;whiteSpace=wrap;html=1;align=left;glass=0;sketch=0;fontFamily=consola;fontSource=https%3A%2F%2Ffonts.googleapis.com%2Fcss%3Ffamily%3Dconsola;fontSize=12;strokeColor=default;fillColor=default;gradientColor=none;" parent="4kYTyxmRW_54p8Q_4_XC-1" vertex="1">
          <mxGeometry x="266" y="43.38" width="140" height="30" as="geometry" />
        </mxCell>
        <mxCell id="4NJS1B0K4fI5r6qoZAFL-24" value="&lt;span style=&quot;font-size: 14px;&quot;&gt;gatt_register()&lt;/span&gt;" style="rounded=1;arcSize=10;whiteSpace=wrap;html=1;align=left;glass=0;sketch=0;fontFamily=consola;fontSource=https%3A%2F%2Ffonts.googleapis.com%2Fcss%3Ffamily%3Dconsola;fontSize=12;strokeColor=default;fillColor=default;gradientColor=none;" parent="4kYTyxmRW_54p8Q_4_XC-1" vertex="1">
          <mxGeometry x="266" y="3.38" width="140" height="30" as="geometry" />
        </mxCell>
        <mxCell id="4NJS1B0K4fI5r6qoZAFL-25" value="&lt;span style=&quot;font-size: 14px;&quot;&gt;&lt;b&gt;GATT Features&lt;/b&gt;&lt;/span&gt;" style="rounded=0;whiteSpace=wrap;html=1;glass=0;sketch=0;fontFamily=consola;fontSource=https%3A%2F%2Ffonts.googleapis.com%2Fcss%3Ffamily%3Dconsola;fontSize=12;strokeColor=none;fillColor=#FFCE9F;gradientColor=none;horizontal=1;verticalAlign=top;align=left;" parent="4kYTyxmRW_54p8Q_4_XC-1" vertex="1">
          <mxGeometry x="526" y="-58" width="330" height="326" as="geometry" />
        </mxCell>
        <mxCell id="4NJS1B0K4fI5r6qoZAFL-28" value="" style="shape=datastore;whiteSpace=wrap;html=1;rounded=0;glass=0;sketch=0;fontFamily=consola;verticalAlign=bottom;horizontal=0;fontSize=14;fontSource=https%3A%2F%2Ffonts.googleapis.com%2Fcss%3Ffamily%3Dconsola;fillColor=#FFCE9F;align=left;" parent="4kYTyxmRW_54p8Q_4_XC-1" vertex="1">
          <mxGeometry x="-70" y="-72" width="250" height="161" as="geometry" />
        </mxCell>
        <mxCell id="4NJS1B0K4fI5r6qoZAFL-31" value="&lt;b style=&quot;font-size: 14px;&quot;&gt;Struct define&lt;/b&gt;" style="text;html=1;strokeColor=none;fillColor=none;align=left;verticalAlign=middle;whiteSpace=wrap;rounded=0;glass=0;sketch=0;fontFamily=consola;fontSize=14;fontSource=https%3A%2F%2Ffonts.googleapis.com%2Fcss%3Ffamily%3Dconsola;" parent="4kYTyxmRW_54p8Q_4_XC-1" vertex="1">
          <mxGeometry y="-72" width="110" height="25.38" as="geometry" />
        </mxCell>
        <mxCell id="4NJS1B0K4fI5r6qoZAFL-32" value="" style="endArrow=none;dashed=1;html=1;rounded=0;strokeWidth=2;" parent="4kYTyxmRW_54p8Q_4_XC-1" edge="1">
          <mxGeometry width="50" height="50" relative="1" as="geometry">
            <mxPoint x="-88" y="819" as="sourcePoint" />
            <mxPoint x="888" y="819" as="targetPoint" />
          </mxGeometry>
        </mxCell>
        <mxCell id="4NJS1B0K4fI5r6qoZAFL-33" value="&lt;b&gt;&lt;font style=&quot;font-size: 14px;&quot;&gt;Lower Layer(L2CAP)&lt;/font&gt;&lt;/b&gt;" style="text;html=1;align=center;verticalAlign=middle;resizable=0;points=[];autosize=1;strokeColor=none;fillColor=none;" parent="4kYTyxmRW_54p8Q_4_XC-1" vertex="1">
          <mxGeometry x="-93" y="835" width="156" height="29" as="geometry" />
        </mxCell>
        <mxCell id="olu0_kB8pJW3Q9JklZ8J-1" style="edgeStyle=orthogonalEdgeStyle;rounded=0;orthogonalLoop=1;jettySize=auto;html=1;fontSize=14;strokeWidth=1;strokeColor=#7EA6E0;" parent="4kYTyxmRW_54p8Q_4_XC-1" source="FCg7_EDB2yCEi_28RNj6-0" target="kIotDGVsWTNzSx4liB4O-0" edge="1">
          <mxGeometry relative="1" as="geometry" />
        </mxCell>
        <mxCell id="FCg7_EDB2yCEi_28RNj6-0" value="SDU(Read Rsp)" style="rounded=0;whiteSpace=wrap;html=1;strokeColor=default;fillColor=#CCCCCC;gradientColor=none;fontSize=14;fontFamily=consola;fontSource=https%3A%2F%2Ffonts.googleapis.com%2Fcss%3Ffamily%3Dconsola;align=left;" parent="4kYTyxmRW_54p8Q_4_XC-1" vertex="1">
          <mxGeometry x="575" y="702" width="128" height="30" as="geometry" />
        </mxCell>
        <mxCell id="3c3tjuZdf967_n18R4A1-11" style="edgeStyle=orthogonalEdgeStyle;rounded=0;orthogonalLoop=1;jettySize=auto;html=1;fontSize=14;strokeWidth=1;strokeColor=#7EA6E0;" parent="4kYTyxmRW_54p8Q_4_XC-1" source="kIotDGVsWTNzSx4liB4O-0" edge="1">
          <mxGeometry relative="1" as="geometry">
            <mxPoint x="639" y="848" as="targetPoint" />
          </mxGeometry>
        </mxCell>
        <mxCell id="kIotDGVsWTNzSx4liB4O-0" value="&lt;span style=&quot;font-size: 14px;&quot;&gt;chan_send()&lt;/span&gt;" style="rounded=1;arcSize=10;whiteSpace=wrap;html=1;align=left;glass=0;sketch=0;fontFamily=consola;fontSource=https%3A%2F%2Ffonts.googleapis.com%2Fcss%3Ffamily%3Dconsola;fontSize=12;strokeColor=default;fillColor=default;gradientColor=none;" parent="4kYTyxmRW_54p8Q_4_XC-1" vertex="1">
          <mxGeometry x="569" y="753" width="140" height="30" as="geometry" />
        </mxCell>
        <mxCell id="olu0_kB8pJW3Q9JklZ8J-0" style="edgeStyle=orthogonalEdgeStyle;rounded=0;orthogonalLoop=1;jettySize=auto;html=1;fontSize=14;strokeWidth=1;strokeColor=#7EA6E0;" parent="4kYTyxmRW_54p8Q_4_XC-1" source="kIotDGVsWTNzSx4liB4O-1" target="3c3tjuZdf967_n18R4A1-4" edge="1">
          <mxGeometry relative="1" as="geometry" />
        </mxCell>
        <mxCell id="kIotDGVsWTNzSx4liB4O-1" value="SDU(Read Request)" style="rounded=0;whiteSpace=wrap;html=1;strokeColor=default;fillColor=#CCCCCC;gradientColor=none;fontSize=14;fontFamily=consola;fontSource=https%3A%2F%2Ffonts.googleapis.com%2Fcss%3Ffamily%3Dconsola;align=left;" parent="4kYTyxmRW_54p8Q_4_XC-1" vertex="1">
          <mxGeometry x="353" y="831" width="140" height="27" as="geometry" />
        </mxCell>
        <mxCell id="vR5FNIahUqkv23ubM-fr-26" style="edgeStyle=orthogonalEdgeStyle;rounded=0;orthogonalLoop=1;jettySize=auto;html=1;entryX=0.75;entryY=0;entryDx=0;entryDy=0;fontSize=14;strokeWidth=1;strokeColor=#EA6B66;" parent="4kYTyxmRW_54p8Q_4_XC-1" source="olu0_kB8pJW3Q9JklZ8J-3" target="vR5FNIahUqkv23ubM-fr-0" edge="1">
          <mxGeometry relative="1" as="geometry">
            <Array as="points">
              <mxPoint x="777" y="239" />
            </Array>
          </mxGeometry>
        </mxCell>
        <mxCell id="olu0_kB8pJW3Q9JklZ8J-3" value="&lt;span style=&quot;font-size: 14px;&quot;&gt;bt_gatt_write()&lt;/span&gt;" style="rounded=1;arcSize=10;whiteSpace=wrap;html=1;align=left;glass=0;sketch=0;fontFamily=consola;fontSource=https%3A%2F%2Ffonts.googleapis.com%2Fcss%3Ffamily%3Dconsola;fontSize=12;strokeColor=default;fillColor=default;gradientColor=none;" parent="4kYTyxmRW_54p8Q_4_XC-1" vertex="1">
          <mxGeometry x="545" y="224" width="140" height="30" as="geometry" />
        </mxCell>
        <mxCell id="3c3tjuZdf967_n18R4A1-0" value="" style="group;fontSize=14;fontFamily=consola;fontSource=https%3A%2F%2Ffonts.googleapis.com%2Fcss%3Ffamily%3Dconsola;fillColor=#FFFFFF;align=left;" parent="4kYTyxmRW_54p8Q_4_XC-1" vertex="1" connectable="0">
          <mxGeometry x="-79" y="145" width="285" height="165" as="geometry" />
        </mxCell>
        <mxCell id="3c3tjuZdf967_n18R4A1-1" value="" style="shape=datastore;whiteSpace=wrap;html=1;rounded=0;glass=0;sketch=0;fontFamily=consola;strokeColor=default;fillColor=#FFCE9F;gradientColor=none;verticalAlign=bottom;horizontal=0;fontSize=14;fontSource=https%3A%2F%2Ffonts.googleapis.com%2Fcss%3Ffamily%3Dconsola;align=left;" parent="3c3tjuZdf967_n18R4A1-0" vertex="1">
          <mxGeometry y="-0.01" width="285" height="164.01" as="geometry" />
        </mxCell>
        <mxCell id="3c3tjuZdf967_n18R4A1-2" value="&lt;b style=&quot;font-size: 14px;&quot;&gt;Global Data&lt;/b&gt;" style="text;html=1;strokeColor=none;fillColor=none;align=left;verticalAlign=middle;whiteSpace=wrap;rounded=0;glass=0;sketch=0;fontFamily=consola;fontSize=14;fontSource=https%3A%2F%2Ffonts.googleapis.com%2Fcss%3Ffamily%3Dconsola;" parent="3c3tjuZdf967_n18R4A1-0" vertex="1">
          <mxGeometry x="90" y="-0.005319148936182005" width="90" height="38.07692307692307" as="geometry" />
        </mxCell>
        <mxCell id="vR5FNIahUqkv23ubM-fr-17" value="&lt;span style=&quot;font-size: 14px;&quot;&gt;struct gatt_sub subscriptions[SUB_MAX]&lt;/span&gt;" style="rounded=1;arcSize=10;whiteSpace=wrap;html=1;align=left;glass=0;sketch=0;fontFamily=consola;fontSource=https%3A%2F%2Ffonts.googleapis.com%2Fcss%3Ffamily%3Dconsola;fontSize=12;strokeColor=default;fillColor=default;gradientColor=none;" parent="3c3tjuZdf967_n18R4A1-0" vertex="1">
          <mxGeometry x="10" y="102" width="270" height="32" as="geometry" />
        </mxCell>
        <mxCell id="vR5FNIahUqkv23ubM-fr-20" value="&lt;span style=&quot;font-size: 14px;&quot;&gt;static sys_slist_t db&lt;/span&gt;" style="rounded=1;arcSize=10;whiteSpace=wrap;html=1;align=left;glass=0;sketch=0;fontFamily=consola;fontSource=https%3A%2F%2Ffonts.googleapis.com%2Fcss%3Ffamily%3Dconsola;fontSize=12;strokeColor=default;fillColor=default;gradientColor=none;" parent="3c3tjuZdf967_n18R4A1-0" vertex="1">
          <mxGeometry x="10" y="64" width="270" height="32" as="geometry" />
        </mxCell>
        <mxCell id="vR5FNIahUqkv23ubM-fr-23" style="edgeStyle=orthogonalEdgeStyle;rounded=0;orthogonalLoop=1;jettySize=auto;html=1;entryX=0;entryY=0.75;entryDx=0;entryDy=0;fontSize=14;strokeWidth=1;exitX=0.5;exitY=0;exitDx=0;exitDy=0;strokeColor=#7EA6E0;" parent="4kYTyxmRW_54p8Q_4_XC-1" source="3c3tjuZdf967_n18R4A1-4" target="vR5FNIahUqkv23ubM-fr-1" edge="1">
          <mxGeometry relative="1" as="geometry" />
        </mxCell>
        <mxCell id="3c3tjuZdf967_n18R4A1-4" value="&lt;span style=&quot;font-size: 14px;&quot;&gt;bt_att_recv()&lt;/span&gt;" style="rounded=1;arcSize=10;whiteSpace=wrap;html=1;align=left;glass=0;sketch=0;fontFamily=consola;fontSource=https%3A%2F%2Ffonts.googleapis.com%2Fcss%3Ffamily%3Dconsola;fontSize=12;strokeColor=default;fillColor=default;gradientColor=none;" parent="4kYTyxmRW_54p8Q_4_XC-1" vertex="1">
          <mxGeometry x="353" y="753" width="140" height="30" as="geometry" />
        </mxCell>
        <mxCell id="3c3tjuZdf967_n18R4A1-10" value="&lt;b style=&quot;font-family: consola;&quot;&gt;Attribute&lt;/b&gt;" style="rounded=0;whiteSpace=wrap;html=1;fontSize=14;fillColor=#FFCE9F;align=left;verticalAlign=top;strokeColor=none;" parent="4kYTyxmRW_54p8Q_4_XC-1" vertex="1">
          <mxGeometry x="208" y="465" width="252" height="54" as="geometry" />
        </mxCell>
        <mxCell id="3c3tjuZdf967_n18R4A1-14" value="" style="endArrow=none;dashed=1;html=1;rounded=0;fontSize=14;strokeWidth=1;exitX=0.5;exitY=1;exitDx=0;exitDy=0;entryX=0.5;entryY=0;entryDx=0;entryDy=0;" parent="4kYTyxmRW_54p8Q_4_XC-1" source="4kYTyxmRW_54p8Q_4_XC-21" target="4kYTyxmRW_54p8Q_4_XC-21" edge="1">
          <mxGeometry width="50" height="50" relative="1" as="geometry">
            <mxPoint x="412" y="623" as="sourcePoint" />
            <mxPoint x="462" y="573" as="targetPoint" />
          </mxGeometry>
        </mxCell>
        <mxCell id="vR5FNIahUqkv23ubM-fr-25" style="edgeStyle=orthogonalEdgeStyle;rounded=0;orthogonalLoop=1;jettySize=auto;html=1;entryX=0.75;entryY=0;entryDx=0;entryDy=0;fontSize=14;strokeWidth=1;exitX=0;exitY=1;exitDx=0;exitDy=0;strokeColor=#7EA6E0;" parent="4kYTyxmRW_54p8Q_4_XC-1" source="vR5FNIahUqkv23ubM-fr-0" target="FCg7_EDB2yCEi_28RNj6-0" edge="1">
          <mxGeometry relative="1" as="geometry">
            <Array as="points">
              <mxPoint x="671" y="493" />
            </Array>
          </mxGeometry>
        </mxCell>
        <mxCell id="vR5FNIahUqkv23ubM-fr-27" style="edgeStyle=orthogonalEdgeStyle;rounded=0;orthogonalLoop=1;jettySize=auto;html=1;exitX=0.75;exitY=1;exitDx=0;exitDy=0;entryX=0.25;entryY=0;entryDx=0;entryDy=0;fontSize=14;strokeWidth=1;strokeColor=#EA6B66;" parent="4kYTyxmRW_54p8Q_4_XC-1" source="vR5FNIahUqkv23ubM-fr-0" target="vR5FNIahUqkv23ubM-fr-5" edge="1">
          <mxGeometry relative="1" as="geometry" />
        </mxCell>
        <mxCell id="vR5FNIahUqkv23ubM-fr-0" value="   Send API&#xa;&#xa;bt_att_send()&#xa;bt_att_req_send()&#xa;" style="swimlane;childLayout=stackLayout;horizontal=1;startSize=30;horizontalStack=0;rounded=1;fontSize=14;fontStyle=0;strokeWidth=2;resizeParent=0;resizeLast=1;shadow=0;dashed=0;align=left;glass=0;sketch=0;fontFamily=consola;fontSource=https%3A%2F%2Ffonts.googleapis.com%2Fcss%3Ffamily%3Dconsola;gradientColor=none;swimlaneFillColor=default;verticalAlign=top;" parent="4kYTyxmRW_54p8Q_4_XC-1" vertex="1">
          <mxGeometry x="668" y="394" width="145" height="99" as="geometry" />
        </mxCell>
        <mxCell id="vR5FNIahUqkv23ubM-fr-1" value="   Receive handler&#xa;&#xa;att_read_req()&#xa;att_write_req()&#xa;att_write_cmd()&#xa;att_notify()&#xa;att_indicate&#xa;......" style="swimlane;childLayout=stackLayout;horizontal=1;startSize=30;horizontalStack=0;rounded=1;fontSize=14;fontStyle=0;strokeWidth=2;resizeParent=0;resizeLast=1;shadow=0;dashed=0;align=left;glass=0;sketch=0;fontFamily=consola;fontSource=https%3A%2F%2Ffonts.googleapis.com%2Fcss%3Ffamily%3Dconsola;gradientColor=none;swimlaneFillColor=default;verticalAlign=top;" parent="4kYTyxmRW_54p8Q_4_XC-1" vertex="1">
          <mxGeometry x="496" y="392" width="145" height="196" as="geometry" />
        </mxCell>
        <mxCell id="vR5FNIahUqkv23ubM-fr-4" style="edgeStyle=orthogonalEdgeStyle;rounded=0;orthogonalLoop=1;jettySize=auto;html=1;fontSize=14;strokeWidth=1;strokeColor=#EA6B66;" parent="4kYTyxmRW_54p8Q_4_XC-1" source="vR5FNIahUqkv23ubM-fr-5" target="vR5FNIahUqkv23ubM-fr-7" edge="1">
          <mxGeometry relative="1" as="geometry" />
        </mxCell>
        <mxCell id="vR5FNIahUqkv23ubM-fr-5" value="SDU(Write Cmd)" style="rounded=0;whiteSpace=wrap;html=1;strokeColor=default;fillColor=#CCCCCC;gradientColor=none;fontSize=14;fontFamily=consola;fontSource=https%3A%2F%2Ffonts.googleapis.com%2Fcss%3Ffamily%3Dconsola;align=left;" parent="4kYTyxmRW_54p8Q_4_XC-1" vertex="1">
          <mxGeometry x="744" y="702" width="128" height="30" as="geometry" />
        </mxCell>
        <mxCell id="vR5FNIahUqkv23ubM-fr-6" style="edgeStyle=orthogonalEdgeStyle;rounded=0;orthogonalLoop=1;jettySize=auto;html=1;fontSize=14;strokeWidth=1;strokeColor=#EA6B66;" parent="4kYTyxmRW_54p8Q_4_XC-1" source="vR5FNIahUqkv23ubM-fr-7" edge="1">
          <mxGeometry relative="1" as="geometry">
            <mxPoint x="808" y="848" as="targetPoint" />
          </mxGeometry>
        </mxCell>
        <mxCell id="vR5FNIahUqkv23ubM-fr-7" value="&lt;span style=&quot;font-size: 14px;&quot;&gt;chan_send()&lt;/span&gt;" style="rounded=1;arcSize=10;whiteSpace=wrap;html=1;align=left;glass=0;sketch=0;fontFamily=consola;fontSource=https%3A%2F%2Ffonts.googleapis.com%2Fcss%3Ffamily%3Dconsola;fontSize=12;strokeColor=default;fillColor=default;gradientColor=none;" parent="4kYTyxmRW_54p8Q_4_XC-1" vertex="1">
          <mxGeometry x="738" y="753" width="140" height="30" as="geometry" />
        </mxCell>
        <mxCell id="vR5FNIahUqkv23ubM-fr-10" value="&lt;span style=&quot;font-size: 14px;&quot;&gt;struct bt_gatt_attr&lt;/span&gt;" style="rounded=1;arcSize=10;whiteSpace=wrap;html=1;align=left;glass=0;sketch=0;fontFamily=consola;fontSource=https%3A%2F%2Ffonts.googleapis.com%2Fcss%3Ffamily%3Dconsola;fontSize=12;strokeColor=default;fillColor=default;gradientColor=none;" parent="4kYTyxmRW_54p8Q_4_XC-1" vertex="1">
          <mxGeometry x="-60" y="-31" width="165" height="30" as="geometry" />
        </mxCell>
        <mxCell id="vR5FNIahUqkv23ubM-fr-12" value="&lt;span style=&quot;font-size: 14px;&quot;&gt;struct gatt_sub&lt;/span&gt;" style="rounded=1;arcSize=10;whiteSpace=wrap;html=1;align=left;glass=0;sketch=0;fontFamily=consola;fontSource=https%3A%2F%2Ffonts.googleapis.com%2Fcss%3Ffamily%3Dconsola;fontSize=12;strokeColor=default;fillColor=default;gradientColor=none;" parent="4kYTyxmRW_54p8Q_4_XC-1" vertex="1">
          <mxGeometry x="-60" y="43.379999999999995" width="140" height="30" as="geometry" />
        </mxCell>
        <mxCell id="vR5FNIahUqkv23ubM-fr-18" value="&lt;span style=&quot;font-size: 14px;&quot;&gt;struct bt_gatt_service&lt;/span&gt;" style="rounded=1;arcSize=10;whiteSpace=wrap;html=1;align=left;glass=0;sketch=0;fontFamily=consola;fontSource=https%3A%2F%2Ffonts.googleapis.com%2Fcss%3Ffamily%3Dconsola;fontSize=12;strokeColor=default;fillColor=default;gradientColor=none;" parent="4kYTyxmRW_54p8Q_4_XC-1" vertex="1">
          <mxGeometry x="-60" y="3.38" width="156" height="30" as="geometry" />
        </mxCell>
        <mxCell id="vR5FNIahUqkv23ubM-fr-21" value="" style="shape=link;html=1;rounded=0;fontSize=14;strokeWidth=1;entryX=0.25;entryY=0;entryDx=0;entryDy=0;exitX=0.704;exitY=0.373;exitDx=0;exitDy=0;exitPerimeter=0;" parent="4kYTyxmRW_54p8Q_4_XC-1" source="4NJS1B0K4fI5r6qoZAFL-28" target="3c3tjuZdf967_n18R4A1-10" edge="1">
          <mxGeometry width="100" relative="1" as="geometry">
            <mxPoint x="160" y="112" as="sourcePoint" />
            <mxPoint x="260" y="112" as="targetPoint" />
            <Array as="points">
              <mxPoint x="218" y="144" />
            </Array>
          </mxGeometry>
        </mxCell>
        <mxCell id="vR5FNIahUqkv23ubM-fr-22" style="edgeStyle=orthogonalEdgeStyle;rounded=0;orthogonalLoop=1;jettySize=auto;html=1;fontSize=14;strokeWidth=1;exitX=0;exitY=0.25;exitDx=0;exitDy=0;strokeColor=#7EA6E0;" parent="4kYTyxmRW_54p8Q_4_XC-1" source="vR5FNIahUqkv23ubM-fr-1" target="4NJS1B0K4fI5r6qoZAFL-22" edge="1">
          <mxGeometry relative="1" as="geometry">
            <mxPoint x="433" y="763" as="sourcePoint" />
            <mxPoint x="542.25" y="584" as="targetPoint" />
          </mxGeometry>
        </mxCell>
        <mxCell id="vR5FNIahUqkv23ubM-fr-28" value="&lt;span style=&quot;font-size: 14px;&quot;&gt;bt_gatt_read()&lt;/span&gt;" style="rounded=1;arcSize=10;whiteSpace=wrap;html=1;align=left;glass=0;sketch=0;fontFamily=consola;fontSource=https%3A%2F%2Ffonts.googleapis.com%2Fcss%3Ffamily%3Dconsola;fontSize=12;strokeColor=default;fillColor=default;gradientColor=none;" parent="4kYTyxmRW_54p8Q_4_XC-1" vertex="1">
          <mxGeometry x="545" y="181" width="140" height="30" as="geometry" />
        </mxCell>
        <mxCell id="vR5FNIahUqkv23ubM-fr-29" value="&lt;span style=&quot;font-size: 14px;&quot;&gt;bt_gatt_notify_cb()&lt;/span&gt;" style="rounded=1;arcSize=10;whiteSpace=wrap;html=1;align=left;glass=0;sketch=0;fontFamily=consola;fontSource=https%3A%2F%2Ffonts.googleapis.com%2Fcss%3Ffamily%3Dconsola;fontSize=12;strokeColor=default;fillColor=default;gradientColor=none;" parent="4kYTyxmRW_54p8Q_4_XC-1" vertex="1">
          <mxGeometry x="545" y="142" width="140" height="30" as="geometry" />
        </mxCell>
        <mxCell id="vR5FNIahUqkv23ubM-fr-30" value="&lt;span style=&quot;font-size: 14px;&quot;&gt;bt_gatt_exchange_mtu()&lt;/span&gt;" style="rounded=1;arcSize=10;whiteSpace=wrap;html=1;align=left;glass=0;sketch=0;fontFamily=consola;fontSource=https%3A%2F%2Ffonts.googleapis.com%2Fcss%3Ffamily%3Dconsola;fontSize=12;strokeColor=default;fillColor=default;gradientColor=none;" parent="4kYTyxmRW_54p8Q_4_XC-1" vertex="1">
          <mxGeometry x="545" y="24" width="167" height="30" as="geometry" />
        </mxCell>
        <mxCell id="vR5FNIahUqkv23ubM-fr-32" value="&lt;span style=&quot;font-size: 14px;&quot;&gt;bt_gatt_indicate()&lt;/span&gt;" style="rounded=1;arcSize=10;whiteSpace=wrap;html=1;align=left;glass=0;sketch=0;fontFamily=consola;fontSource=https%3A%2F%2Ffonts.googleapis.com%2Fcss%3Ffamily%3Dconsola;fontSize=12;strokeColor=default;fillColor=default;gradientColor=none;" parent="4kYTyxmRW_54p8Q_4_XC-1" vertex="1">
          <mxGeometry x="545" y="102" width="140" height="30" as="geometry" />
        </mxCell>
        <mxCell id="vR5FNIahUqkv23ubM-fr-34" value="&lt;span style=&quot;font-size: 14px;&quot;&gt;bt_gatt_discover()&lt;/span&gt;" style="rounded=1;arcSize=10;whiteSpace=wrap;html=1;align=left;glass=0;sketch=0;fontFamily=consola;fontSource=https%3A%2F%2Ffonts.googleapis.com%2Fcss%3Ffamily%3Dconsola;fontSize=12;strokeColor=default;fillColor=default;gradientColor=none;" parent="4kYTyxmRW_54p8Q_4_XC-1" vertex="1">
          <mxGeometry x="545" y="-16" width="140" height="30" as="geometry" />
        </mxCell>
        <mxCell id="vR5FNIahUqkv23ubM-fr-35" value="&lt;span style=&quot;font-size: 14px;&quot;&gt;bt_gatt_subscribe()&lt;/span&gt;" style="rounded=1;arcSize=10;whiteSpace=wrap;html=1;align=left;glass=0;sketch=0;fontFamily=consola;fontSource=https%3A%2F%2Ffonts.googleapis.com%2Fcss%3Ffamily%3Dconsola;fontSize=12;strokeColor=default;fillColor=default;gradientColor=none;" parent="4kYTyxmRW_54p8Q_4_XC-1" vertex="1">
          <mxGeometry x="545" y="63.38" width="140" height="30" as="geometry" />
        </mxCell>
      </root>
    </mxGraphModel>
  </diagram>
</mxfile>
